<svg xmlns="http://www.w3.org/2000/svg" xmlns:xlink="http://www.w3.org/1999/xlink" xmlns:svgjs="http://svgjs.dev/svgjs" version="1.1" viewBox="366.9 -0.5 936.76 936.76"><g transform="matrix(1,0,0,1,-0.9090909090909918,0.3785425101214628)"><svg xmlns="http://www.w3.org/2000/svg" xmlns:xlink="http://www.w3.org/1999/xlink" viewBox="0 0 396 247" data-background-color="#0a1627" preserveAspectRatio="xMidYMid meet" height="935" width="1500"><g id="tight-bounds" transform="matrix(1,0,0,1,0.2400000000000091,-0.09999999999999432)"><svg viewBox="0 0 395.52 247.2" height="247.2" width="395.52"><g><svg/></g><g><svg viewBox="0 0 395.52 247.2" height="247.2" width="395.52"><g transform="matrix(1,0,0,1,161.8265727647868,47.215199999999996)"><svg viewBox="0 0 71.8668544704264 152.7696" height="152.7696" width="71.8668544704264"><g><svg viewBox="0 0 71.8668544704264 152.7696" height="152.7696" width="71.8668544704264"><g><svg viewBox="0 0 71.8668544704264 152.7696" height="152.7696" width="71.8668544704264"><g><svg viewBox="0 0 71.8668544704264 152.7696" height="152.7696" width="71.8668544704264"><g id="textblocktransform"><svg viewBox="0 0 71.8668544704264 152.7696" height="152.7696" width="71.8668544704264" id="textblock"><g><svg viewBox="0 0 71.8668544704264 152.7696" height="152.7696" width="71.8668544704264"><g transform="matrix(1,0,0,1,0,0)"><svg width="71.8668544704264" viewBox="3 -35.01 16.7 35.5" height="152.7696" data-palette-color="#fe0039"><path d="M19.7-6.86L19.7-6.86Q19.7-5.35 19.13-4 18.55-2.66 17.55-1.66 16.55-0.66 15.21-0.09 13.87 0.49 12.35 0.49L12.35 0.49 10.35 0.49Q8.84 0.49 7.5-0.09 6.15-0.66 5.15-1.66 4.15-2.66 3.58-4 3-5.35 3-6.86L3-6.86 3-35.01 6.01-35.01 6.01-22.9Q7.03-24.12 8.47-24.8 9.91-25.49 11.6-25.49L11.6-25.49 12.35-25.49Q13.87-25.49 15.21-24.91 16.55-24.34 17.55-23.34 18.55-22.34 19.13-21 19.7-19.65 19.7-18.14L19.7-18.14 19.7-6.86ZM16.7-6.69L16.7-18.31Q16.7-19.21 16.36-20.01 16.02-20.8 15.43-21.39 14.84-21.97 14.05-22.31 13.26-22.66 12.35-22.66L12.35-22.66 10.35-22.66Q9.45-22.66 8.65-22.31 7.86-21.97 7.28-21.39 6.69-20.8 6.35-20.01 6.01-19.21 6.01-18.31L6.01-18.31 6.01-6.69Q6.01-5.79 6.35-4.99 6.69-4.2 7.28-3.61 7.86-3.03 8.65-2.69 9.45-2.34 10.35-2.34L10.35-2.34 12.35-2.34Q13.26-2.34 14.05-2.69 14.84-3.03 15.43-3.61 16.02-4.2 16.36-4.99 16.7-5.79 16.7-6.69L16.7-6.69Z" opacity="1" transform="matrix(1,0,0,1,0,0)" fill="#fe0039" class="wordmark-text-0" data-fill-palette-color="primary" id="text-0"/></svg></g></svg></g></svg></g></svg></g></svg></g></svg></g></svg></g><path d="M344.128 41.215L344.128 0 96.928 0 96.928 247.2 344.128 247.2 344.128 205.985 330.351 205.985 330.351 233.423 110.705 233.423 110.705 13.777 330.351 13.777 330.351 41.215Z" fill="#fe0039" stroke="transparent" data-fill-palette-color="tertiary"/></svg></g><defs/></svg><rect width="395.52" height="247.2" fill="none" stroke="none" visibility="hidden"/></g></svg></g></svg>